<svg xmlns="http://www.w3.org/2000/svg" width="1280" height="320" viewBox="0 0 1280 320" role="img" aria-label="SMETAHA banner">
  <defs>
    <linearGradient id="bg" x1="0" y1="0" x2="1280" y2="320" gradientUnits="userSpaceOnUse">
      <stop offset="0%" stop-color="#0F172A"/>
      <stop offset="50%" stop-color="#111827"/>
      <stop offset="100%" stop-color="#1E293B"/>
    </linearGradient>
    <linearGradient id="accent" x1="72" y1="228" x2="242" y2="270" gradientUnits="userSpaceOnUse">
      <stop offset="0%" stop-color="#60A5FA"/>
      <stop offset="50%" stop-color="#818CF8"/>
      <stop offset="100%" stop-color="#22D3EE"/>
    </linearGradient>
  </defs>

  <rect width="1280" height="320" rx="28" fill="url(#bg)"/>

  <circle cx="1060" cy="72" r="110" fill="#38BDF8" opacity="0.10"/>
  <circle cx="980" cy="220" r="120" fill="#6366F1" opacity="0.10"/>
  <circle cx="260" cy="70" r="90" fill="#22D3EE" opacity="0.08"/>

  <rect x="28" y="28" width="1224" height="264" rx="24" fill="#FFFFFF" fill-opacity="0.02" stroke="#FFFFFF" stroke-opacity="0.14" stroke-width="1.5"/>

  <g opacity="0.12">
    <path d="M900 38H1180" stroke="#E2E8F0" stroke-width="1"/>
    <path d="M970 62H1210" stroke="#E2E8F0" stroke-width="1"/>
    <path d="M1020 86H1230" stroke="#E2E8F0" stroke-width="1"/>
    <path d="M980 110H1180" stroke="#E2E8F0" stroke-width="1"/>
    <path d="M1010 134H1210" stroke="#E2E8F0" stroke-width="1"/>
    <path d="M940 158H1170" stroke="#E2E8F0" stroke-width="1"/>
  </g>

  <text x="72" y="110" fill="#F8FAFC" font-family="Arial, Helvetica, sans-serif" font-size="56" font-weight="700">SMETAHA</text>
  <text x="74" y="154" fill="#93C5FD" font-family="Arial, Helvetica, sans-serif" font-size="22" font-weight="700">Junior Developer • Automation • Systems • Game Dev</text>
  <text x="74" y="204" fill="#CBD5E1" font-family="Arial, Helvetica, sans-serif" font-size="18">Python • Lua • PostgreSQL • Linux/VPS • WinAPI • Practical Tools</text>

  <rect x="72" y="228" width="170" height="42" rx="21" fill="url(#accent)"/>
  <text x="108" y="255" fill="#0F172A" font-family="Arial, Helvetica, sans-serif" font-size="17" font-weight="700">Build &amp; Learn</text>

  <rect x="258" y="228" width="174" height="42" rx="21" fill="#FFFFFF" fill-opacity="0.08" stroke="#FFFFFF" stroke-opacity="0.12"/>
  <text x="299" y="255" fill="#E2E8F0" font-family="Arial, Helvetica, sans-serif" font-size="17" font-weight="600">Automation</text>

  <rect x="448" y="228" width="146" height="42" rx="21" fill="#FFFFFF" fill-opacity="0.08" stroke="#FFFFFF" stroke-opacity="0.12"/>
  <text x="492" y="255" fill="#E2E8F0" font-family="Arial, Helvetica, sans-serif" font-size="17" font-weight="600">Systems</text>

  <g opacity="0.9">
    <circle cx="1130" cy="212" r="38" stroke="#93C5FD" stroke-width="3" fill="none"/>
    <circle cx="1130" cy="212" r="8" fill="#93C5FD"/>
    <path d="M1130 160V182" stroke="#93C5FD" stroke-width="3" stroke-linecap="round"/>
    <path d="M1130 242V264" stroke="#93C5FD" stroke-width="3" stroke-linecap="round"/>
    <path d="M1078 212H1100" stroke="#93C5FD" stroke-width="3" stroke-linecap="round"/>
    <path d="M1160 212H1182" stroke="#93C5FD" stroke-width="3" stroke-linecap="round"/>
  </g>
</svg>
