<svg width="1280" height="320" viewBox="0 0 1280 320" fill="none" xmlns="http://www.w3.org/2000/svg">
  <defs>
    <linearGradient id="bg" x1="0" y1="0" x2="1280" y2="320" gradientUnits="userSpaceOnUse">
      <stop stop-color="#0F172A"/>
      <stop offset="0.5" stop-color="#111827"/>
      <stop offset="1" stop-color="#1E293B"/>
    </linearGradient>
    <linearGradient id="accent" x1="226" y1="68" x2="1020" y2="248" gradientUnits="userSpaceOnUse">
      <stop stop-color="#60A5FA"/>
      <stop offset="0.5" stop-color="#818CF8"/>
      <stop offset="1" stop-color="#22D3EE"/>
    </linearGradient>
    <filter id="blur" x="0" y="0" width="1280" height="320" filterUnits="userSpaceOnUse" color-interpolation-filters="sRGB">
      <feGaussianBlur stdDeviation="40"/>
    </filter>
  </defs>

  <rect width="1280" height="320" rx="28" fill="url(#bg)"/>

  <g opacity="0.28" filter="url(#blur)">
    <circle cx="1060" cy="72" r="110" fill="#38BDF8"/>
    <circle cx="980" cy="220" r="120" fill="#6366F1"/>
    <circle cx="260" cy="70" r="90" fill="#22D3EE"/>
  </g>

  <rect x="28" y="28" width="1224" height="264" rx="24" stroke="rgba(255,255,255,0.14)" stroke-width="1.5" fill="rgba(255,255,255,0.02)"/>

  <g opacity="0.12">
    <path d="M900 38H1180" stroke="#E2E8F0" stroke-width="1"/>
    <path d="M970 62H1210" stroke="#E2E8F0" stroke-width="1"/>
    <path d="M1020 86H1230" stroke="#E2E8F0" stroke-width="1"/>
    <path d="M980 110H1180" stroke="#E2E8F0" stroke-width="1"/>
    <path d="M1010 134H1210" stroke="#E2E8F0" stroke-width="1"/>
    <path d="M940 158H1170" stroke="#E2E8F0" stroke-width="1"/>
  </g>

  <g>
    <text x="72" y="110" fill="#F8FAFC" font-family="Segoe UI, Inter, Arial, sans-serif" font-size="56" font-weight="700">SMETAHA</text>
    <text x="74" y="154" fill="#93C5FD" font-family="Segoe UI, Inter, Arial, sans-serif" font-size="22" font-weight="600">Junior Developer • Automation • Systems • Game Dev</text>
    <text x="74" y="204" fill="#CBD5E1" font-family="Segoe UI, Inter, Arial, sans-serif" font-size="18" font-weight="400">Python • Lua • PostgreSQL • Linux/VPS • WinAPI • Practical Tools</text>
  </g>

  <g>
    <rect x="72" y="228" width="170" height="42" rx="21" fill="url(#accent)" opacity="0.95"/>
    <text x="108" y="255" fill="#0F172A" font-family="Segoe UI, Inter, Arial, sans-serif" font-size="17" font-weight="700">Build & Learn</text>

    <rect x="258" y="228" width="174" height="42" rx="21" fill="rgba(255,255,255,0.08)" stroke="rgba(255,255,255,0.12)"/>
    <text x="299" y="255" fill="#E2E8F0" font-family="Segoe UI, Inter, Arial, sans-serif" font-size="17" font-weight="600">Automation</text>

    <rect x="448" y="228" width="146" height="42" rx="21" fill="rgba(255,255,255,0.08)" stroke="rgba(255,255,255,0.12)"/>
    <text x="492" y="255" fill="#E2E8F0" font-family="Segoe UI, Inter, Arial, sans-serif" font-size="17" font-weight="600">Systems</text>
  </g>

  <g opacity="0.9">
    <circle cx="1130" cy="212" r="38" stroke="#93C5FD" stroke-width="3"/>
    <circle cx="1130" cy="212" r="8" fill="#93C5FD"/>
    <path d="M1130 160V182" stroke="#93C5FD" stroke-width="3" stroke-linecap="round"/>
    <path d="M1130 242V264" stroke="#93C5FD" stroke-width="3" stroke-linecap="round"/>
    <path d="M1078 212H1100" stroke="#93C5FD" stroke-width="3" stroke-linecap="round"/>
    <path d="M1160 212H1182" stroke="#93C5FD" stroke-width="3" stroke-linecap="round"/>
  </g>
</svg>
